<svg xmlns="http://www.w3.org/2000/svg" xmlns:xlink="http://www.w3.org/1999/xlink" width="720" height="720" viewBox="0 0 720 720"><title>Gnuplot</title><desc>Produced by GNUPLOT 5.4 patchlevel 2</desc><g id="gnuplot_canvas"><rect width="720" height="720" x="0" y="0" fill="#fff"/><defs><circle id="gpDot" r=".5" stroke="currentColor" stroke-width=".5"/><path id="gpPt0" stroke="currentColor" stroke-width=".222" d="M-1,0 h2 M0,-1 v2"/><path id="gpPt1" stroke="currentColor" stroke-width=".222" d="M-1,-1 L1,1 M1,-1 L-1,1"/><path id="gpPt2" stroke="currentColor" stroke-width=".222" d="M-1,0 L1,0 M0,-1 L0,1 M-1,-1 L1,1 M-1,1 L1,-1"/><rect id="gpPt3" width="2" height="2" x="-1" y="-1" stroke="currentColor" stroke-width=".222"/><rect id="gpPt4" width="2" height="2" x="-1" y="-1" fill="currentColor" stroke="currentColor" stroke-width=".222"/><circle id="gpPt5" cx="0" cy="0" r="1" stroke="currentColor" stroke-width=".222"/><use id="gpPt6" fill="currentColor" stroke="none" xlink:href="#gpPt5"/><path id="gpPt7" stroke="currentColor" stroke-width=".222" d="M0,-1.33 L-1.33,0.67 L1.33,0.67 z"/><use id="gpPt8" fill="currentColor" stroke="none" xlink:href="#gpPt7"/><use id="gpPt9" stroke="currentColor" transform="rotate(180)" xlink:href="#gpPt7"/><use id="gpPt10" fill="currentColor" stroke="none" xlink:href="#gpPt9"/><use id="gpPt11" stroke="currentColor" transform="rotate(45)" xlink:href="#gpPt3"/><use id="gpPt12" fill="currentColor" stroke="none" xlink:href="#gpPt11"/><path id="gpPt13" stroke="currentColor" stroke-width=".222" d="M0,1.330 L1.265,0.411 L0.782,-1.067 L-0.782,-1.076 L-1.265,0.411 z"/><use id="gpPt14" fill="currentColor" stroke="none" xlink:href="#gpPt13"/><filter id="textbox" width="1" height="1" x="0" y="0" filterUnits="objectBoundingBox"><feFlood flood-color="#FFF" flood-opacity="1" result="bgnd"/><feComposite in="SourceGraphic" in2="bgnd" operator="atop"/></filter><filter id="greybox" width="1" height="1" x="0" y="0" filterUnits="objectBoundingBox"><feFlood flood-color="#d3d3d3" flood-opacity="1" result="grey"/><feComposite in="SourceGraphic" in2="grey" operator="atop"/></filter></defs><g fill="none" stroke="currentColor" stroke-linecap="butt" stroke-linejoin="miter" stroke-width=".5" color="gray"><path stroke="gray" stroke-dasharray="2 4" d="M64.14,662.92 L678.28,662.92" class="gridline"/></g><g fill="none" stroke="currentColor" stroke-linecap="butt" stroke-linejoin="miter" stroke-width="1" color="#000"><path stroke="#000" d="M64.14,662.92 L73.14,662.92 M678.28,662.92 L669.28,662.92"/><g fill="#000" stroke="none" font-family="Arial" font-size="12" text-anchor="end"><text transform="translate(55.75,666.82)"><tspan font-family="Arial">12</tspan></text></g></g><g fill="none" stroke="currentColor" stroke-linecap="butt" stroke-linejoin="miter" stroke-width=".5" color="gray"><path stroke="gray" stroke-dasharray="2 4" d="M64.14,623.53 L678.28,623.53" class="gridline"/></g><g fill="none" stroke="currentColor" stroke-linecap="butt" stroke-linejoin="miter" stroke-width="1" color="#000"><path stroke="#000" d="M64.14,623.53 L73.14,623.53 M678.28,623.53 L669.28,623.53"/><g fill="#000" stroke="none" font-family="Arial" font-size="12" text-anchor="end"><text transform="translate(55.75,627.43)"><tspan font-family="Arial">13</tspan></text></g></g><g fill="none" stroke="currentColor" stroke-linecap="butt" stroke-linejoin="miter" stroke-width=".5" color="gray"><path stroke="gray" stroke-dasharray="2 4" d="M64.14,584.13 L678.28,584.13" class="gridline"/></g><g fill="none" stroke="currentColor" stroke-linecap="butt" stroke-linejoin="miter" stroke-width="1" color="#000"><path stroke="#000" d="M64.14,584.13 L73.14,584.13 M678.28,584.13 L669.28,584.13"/><g fill="#000" stroke="none" font-family="Arial" font-size="12" text-anchor="end"><text transform="translate(55.75,588.03)"><tspan font-family="Arial">14</tspan></text></g></g><g fill="none" stroke="currentColor" stroke-linecap="butt" stroke-linejoin="miter" stroke-width=".5" color="gray"><path stroke="gray" stroke-dasharray="2 4" d="M64.14,544.74 L678.28,544.74" class="gridline"/></g><g fill="none" stroke="currentColor" stroke-linecap="butt" stroke-linejoin="miter" stroke-width="1" color="#000"><path stroke="#000" d="M64.14,544.74 L73.14,544.74 M678.28,544.74 L669.28,544.74"/><g fill="#000" stroke="none" font-family="Arial" font-size="12" text-anchor="end"><text transform="translate(55.75,548.64)"><tspan font-family="Arial">15</tspan></text></g></g><g fill="none" stroke="currentColor" stroke-linecap="butt" stroke-linejoin="miter" stroke-width=".5" color="gray"><path stroke="gray" stroke-dasharray="2 4" d="M64.14,505.34 L678.28,505.34" class="gridline"/></g><g fill="none" stroke="currentColor" stroke-linecap="butt" stroke-linejoin="miter" stroke-width="1" color="#000"><path stroke="#000" d="M64.14,505.34 L73.14,505.34 M678.28,505.34 L669.28,505.34"/><g fill="#000" stroke="none" font-family="Arial" font-size="12" text-anchor="end"><text transform="translate(55.75,509.24)"><tspan font-family="Arial">16</tspan></text></g></g><g fill="none" stroke="currentColor" stroke-linecap="butt" stroke-linejoin="miter" stroke-width=".5" color="gray"><path stroke="gray" stroke-dasharray="2 4" d="M64.14,465.95 L678.28,465.95" class="gridline"/></g><g fill="none" stroke="currentColor" stroke-linecap="butt" stroke-linejoin="miter" stroke-width="1" color="#000"><path stroke="#000" d="M64.14,465.95 L73.14,465.95 M678.28,465.95 L669.28,465.95"/><g fill="#000" stroke="none" font-family="Arial" font-size="12" text-anchor="end"><text transform="translate(55.75,469.85)"><tspan font-family="Arial">17</tspan></text></g></g><g fill="none" stroke="currentColor" stroke-linecap="butt" stroke-linejoin="miter" stroke-width=".5" color="gray"><path stroke="gray" stroke-dasharray="2 4" d="M64.14,426.56 L678.28,426.56" class="gridline"/></g><g fill="none" stroke="currentColor" stroke-linecap="butt" stroke-linejoin="miter" stroke-width="1" color="#000"><path stroke="#000" d="M64.14,426.56 L73.14,426.56 M678.28,426.56 L669.28,426.56"/><g fill="#000" stroke="none" font-family="Arial" font-size="12" text-anchor="end"><text transform="translate(55.75,430.46)"><tspan font-family="Arial">18</tspan></text></g></g><g fill="none" stroke="currentColor" stroke-linecap="butt" stroke-linejoin="miter" stroke-width=".5" color="gray"><path stroke="gray" stroke-dasharray="2 4" d="M64.14,387.16 L678.28,387.16" class="gridline"/></g><g fill="none" stroke="currentColor" stroke-linecap="butt" stroke-linejoin="miter" stroke-width="1" color="#000"><path stroke="#000" d="M64.14,387.16 L73.14,387.16 M678.28,387.16 L669.28,387.16"/><g fill="#000" stroke="none" font-family="Arial" font-size="12" text-anchor="end"><text transform="translate(55.75,391.06)"><tspan font-family="Arial">19</tspan></text></g></g><g fill="none" stroke="currentColor" stroke-linecap="butt" stroke-linejoin="miter" stroke-width=".5" color="gray"><path stroke="gray" stroke-dasharray="2 4" d="M64.14,347.77 L678.28,347.77" class="gridline"/></g><g fill="none" stroke="currentColor" stroke-linecap="butt" stroke-linejoin="miter" stroke-width="1" color="#000"><path stroke="#000" d="M64.14,347.77 L73.14,347.77 M678.28,347.77 L669.28,347.77"/><g fill="#000" stroke="none" font-family="Arial" font-size="12" text-anchor="end"><text transform="translate(55.75,351.67)"><tspan font-family="Arial">20</tspan></text></g></g><g fill="none" stroke="currentColor" stroke-linecap="butt" stroke-linejoin="miter" stroke-width=".5" color="gray"><path stroke="gray" stroke-dasharray="2 4" d="M64.14,308.37 L678.28,308.37" class="gridline"/></g><g fill="none" stroke="currentColor" stroke-linecap="butt" stroke-linejoin="miter" stroke-width="1" color="#000"><path stroke="#000" d="M64.14,308.37 L73.14,308.37 M678.28,308.37 L669.28,308.37"/><g fill="#000" stroke="none" font-family="Arial" font-size="12" text-anchor="end"><text transform="translate(55.75,312.27)"><tspan font-family="Arial">21</tspan></text></g></g><g fill="none" stroke="currentColor" stroke-linecap="butt" stroke-linejoin="miter" stroke-width=".5" color="gray"><path stroke="gray" stroke-dasharray="2 4" d="M64.14,268.98 L678.28,268.98" class="gridline"/></g><g fill="none" stroke="currentColor" stroke-linecap="butt" stroke-linejoin="miter" stroke-width="1" color="#000"><path stroke="#000" d="M64.14,268.98 L73.14,268.98 M678.28,268.98 L669.28,268.98"/><g fill="#000" stroke="none" font-family="Arial" font-size="12" text-anchor="end"><text transform="translate(55.75,272.88)"><tspan font-family="Arial">22</tspan></text></g></g><g fill="none" stroke="currentColor" stroke-linecap="butt" stroke-linejoin="miter" stroke-width=".5" color="gray"><path stroke="gray" stroke-dasharray="2 4" d="M64.14,229.59 L678.28,229.59" class="gridline"/></g><g fill="none" stroke="currentColor" stroke-linecap="butt" stroke-linejoin="miter" stroke-width="1" color="#000"><path stroke="#000" d="M64.14,229.59 L73.14,229.59 M678.28,229.59 L669.28,229.59"/><g fill="#000" stroke="none" font-family="Arial" font-size="12" text-anchor="end"><text transform="translate(55.75,233.49)"><tspan font-family="Arial">23</tspan></text></g></g><g fill="none" stroke="currentColor" stroke-linecap="butt" stroke-linejoin="miter" stroke-width=".5" color="gray"><path stroke="gray" stroke-dasharray="2 4" d="M64.14,190.19 L678.28,190.19" class="gridline"/></g><g fill="none" stroke="currentColor" stroke-linecap="butt" stroke-linejoin="miter" stroke-width="1" color="#000"><path stroke="#000" d="M64.14,190.19 L73.14,190.19 M678.28,190.19 L669.28,190.19"/><g fill="#000" stroke="none" font-family="Arial" font-size="12" text-anchor="end"><text transform="translate(55.75,194.09)"><tspan font-family="Arial">24</tspan></text></g></g><g fill="none" stroke="currentColor" stroke-linecap="butt" stroke-linejoin="miter" stroke-width=".5" color="gray"><path stroke="gray" stroke-dasharray="2 4" d="M64.14,150.80 L678.28,150.80" class="gridline"/></g><g fill="none" stroke="currentColor" stroke-linecap="butt" stroke-linejoin="miter" stroke-width="1" color="#000"><path stroke="#000" d="M64.14,150.80 L73.14,150.80 M678.28,150.80 L669.28,150.80"/><g fill="#000" stroke="none" font-family="Arial" font-size="12" text-anchor="end"><text transform="translate(55.75,154.70)"><tspan font-family="Arial">25</tspan></text></g></g><g fill="none" stroke="currentColor" stroke-linecap="butt" stroke-linejoin="miter" stroke-width=".5" color="gray"><path stroke="gray" stroke-dasharray="2 4" d="M64.14,111.40 L678.28,111.40" class="gridline"/></g><g fill="none" stroke="currentColor" stroke-linecap="butt" stroke-linejoin="miter" stroke-width="1" color="#000"><path stroke="#000" d="M64.14,111.40 L73.14,111.40 M678.28,111.40 L669.28,111.40"/><g fill="#000" stroke="none" font-family="Arial" font-size="12" text-anchor="end"><text transform="translate(55.75,115.30)"><tspan font-family="Arial">26</tspan></text></g></g><g fill="none" stroke="currentColor" stroke-linecap="butt" stroke-linejoin="miter" stroke-width=".5" color="gray"><path stroke="gray" stroke-dasharray="2 4" d="M64.14,72.01 L678.28,72.01" class="gridline"/></g><g fill="none" stroke="currentColor" stroke-linecap="butt" stroke-linejoin="miter" stroke-width="1" color="#000"><path stroke="#000" d="M64.14,72.01 L73.14,72.01 M678.28,72.01 L669.28,72.01"/><g fill="#000" stroke="none" font-family="Arial" font-size="12" text-anchor="end"><text transform="translate(55.75,75.91)"><tspan font-family="Arial">27</tspan></text></g></g><g fill="none" stroke="currentColor" stroke-linecap="butt" stroke-linejoin="miter" stroke-width="1" color="#000"><path stroke="#000" d="M125.55,662.92 L125.55,653.92 M125.55,72.01 L125.55,81.01"/><g fill="#000" stroke="none" font-family="Arial" font-size="12" text-anchor="start"><text transform="translate(124.54,675.08) rotate(-345)"><tspan font-family="Arial">Baseline - No Code</tspan></text></g></g><g fill="none" stroke="currentColor" stroke-linecap="butt" stroke-linejoin="miter" stroke-width="1" color="#000"><path stroke="#000" d="M248.38,662.92 L248.38,653.92 M248.38,72.01 L248.38,81.01"/><g fill="#000" stroke="none" font-family="Arial" font-size="12" text-anchor="start"><text transform="translate(247.37,675.08) rotate(-345)"><tspan font-family="Arial">Predict 1x1x0</tspan></text></g></g><g fill="none" stroke="currentColor" stroke-linecap="butt" stroke-linejoin="miter" stroke-width="1" color="#000"><path stroke="#000" d="M371.21,662.92 L371.21,653.92 M371.21,72.01 L371.21,81.01"/><g fill="#000" stroke="none" font-family="Arial" font-size="12" text-anchor="start"><text transform="translate(370.20,675.08) rotate(-345)"><tspan font-family="Arial">Predict 1x1x1</tspan></text></g></g><g fill="none" stroke="currentColor" stroke-linecap="butt" stroke-linejoin="miter" stroke-width="1" color="#000"><path stroke="#000" d="M494.04,662.92 L494.04,653.92 M494.04,72.01 L494.04,81.01"/><g fill="#000" stroke="none" font-family="Arial" font-size="12" text-anchor="start"><text transform="translate(493.03,675.08) rotate(-345)"><tspan font-family="Arial">Update 1x1x0</tspan></text></g></g><g fill="none" stroke="currentColor" stroke-linecap="butt" stroke-linejoin="miter" stroke-width="1" color="#000"><path stroke="#000" d="M616.87,662.92 L616.87,653.92 M616.87,72.01 L616.87,81.01"/><g fill="#000" stroke="none" font-family="Arial" font-size="12" text-anchor="start"><text transform="translate(615.86,675.08) rotate(-345)"><tspan font-family="Arial">Update 1x1x1</tspan></text></g></g><g fill="none" stroke="currentColor" stroke-linecap="butt" stroke-linejoin="miter" stroke-width="1" color="#000"><path stroke="#000" d="M64.14,72.01 L64.14,662.92 L678.28,662.92 L678.28,72.01 L64.14,72.01 Z"/></g><g fill="none" stroke="currentColor" stroke-linecap="butt" stroke-linejoin="miter" stroke-width="1" color="#000"><g fill="#000" stroke="none" font-family="Arial" font-size="12" text-anchor="middle"><text transform="translate(19.18,367.47) rotate(270)"><tspan font-family="Arial">Time (ns)</tspan></text></g></g><g id="gnuplot_plot_1"><title>gnuplot_plot_1</title><g fill="none" stroke="currentColor" stroke-linecap="butt" stroke-linejoin="miter" stroke-width="1" color="#000"><g stroke="none" shape-rendering="crispEdges"><polygon fill="#F7DC6F" points="70.28 662.92 180.84 662.92 180.84 577.42 70.28 577.42"/></g><path stroke="#000" d="M70.28,662.92 L70.28,577.43 L180.83,577.43 L180.83,662.92 L70.28,662.92 Z"/></g></g><g id="gnuplot_plot_2"><title>gnuplot_plot_2</title><g fill="none" stroke="currentColor" stroke-linecap="butt" stroke-linejoin="miter" stroke-width="1" color="#000"><g stroke="none" shape-rendering="crispEdges"><polygon fill="#F4D03F" points="193.11 662.92 303.66 662.92 303.66 431.48 193.11 431.48"/></g><path stroke="#000" d="M193.11,662.92 L193.11,431.49 L303.65,431.49 L303.65,662.92 L193.11,662.92 Z"/></g></g><g id="gnuplot_plot_3"><title>gnuplot_plot_3</title><g fill="none" stroke="currentColor" stroke-linecap="butt" stroke-linejoin="miter" stroke-width="1" color="#000"><g stroke="none" shape-rendering="crispEdges"><polygon fill="#F1C40F" points="315.94 662.92 426.49 662.92 426.49 395.4 315.94 395.4"/></g><path stroke="#000" d="M315.94,662.92 L315.94,395.41 L426.48,395.41 L426.48,662.92 L315.94,662.92 Z"/></g></g><g id="gnuplot_plot_4"><title>gnuplot_plot_4</title><g fill="none" stroke="currentColor" stroke-linecap="butt" stroke-linejoin="miter" stroke-width="1" color="#000"><g stroke="none" shape-rendering="crispEdges"><polygon fill="#F4D03F" points="438.77 662.92 549.32 662.92 549.32 159.16 438.77 159.16"/></g><path stroke="#000" d="M438.77,662.92 L438.77,159.17 L549.31,159.17 L549.31,662.92 L438.77,662.92 Z"/></g></g><g id="gnuplot_plot_5"><title>gnuplot_plot_5</title><g fill="none" stroke="currentColor" stroke-linecap="butt" stroke-linejoin="miter" stroke-width="1" color="#000"><g stroke="none" shape-rendering="crispEdges"><polygon fill="#F1C40F" points="561.59 662.92 672.15 662.92 672.15 140.06 561.59 140.06"/></g><path stroke="#000" d="M561.59,662.92 L561.59,140.07 L672.14,140.07 L672.14,662.92 L561.59,662.92 Z"/></g></g><g fill="none" stroke="currentColor" stroke-linecap="butt" stroke-linejoin="miter" stroke-width="1" color="#000"><path stroke="#000" d="M64.14,72.01 L64.14,662.92 L678.28,662.92 L678.28,72.01 L64.14,72.01 Z"/></g><g fill="none" stroke="currentColor" stroke-linecap="butt" stroke-linejoin="miter" stroke-width="1" color="#000"><g fill="#000" stroke="none" font-family="Arial" font-size="12" text-anchor="middle"><text transform="translate(371.21,30.91)"><tspan font-family="Arial" font-weight="bold">Float Group Benchmark</tspan></text></g></g></g></svg>