<svg xmlns="http://www.w3.org/2000/svg" xmlns:xlink="http://www.w3.org/1999/xlink" width="360" height="720" viewBox="0 0 360 720"><title>Gnuplot</title><desc>Produced by GNUPLOT 5.4 patchlevel 2</desc><g id="gnuplot_canvas"><rect width="360" height="720" x="0" y="0" fill="#fff"/><defs><circle id="gpDot" r=".5" stroke="currentColor" stroke-width=".5"/><path id="gpPt0" stroke="currentColor" stroke-width=".222" d="M-1,0 h2 M0,-1 v2"/><path id="gpPt1" stroke="currentColor" stroke-width=".222" d="M-1,-1 L1,1 M1,-1 L-1,1"/><path id="gpPt2" stroke="currentColor" stroke-width=".222" d="M-1,0 L1,0 M0,-1 L0,1 M-1,-1 L1,1 M-1,1 L1,-1"/><rect id="gpPt3" width="2" height="2" x="-1" y="-1" stroke="currentColor" stroke-width=".222"/><rect id="gpPt4" width="2" height="2" x="-1" y="-1" fill="currentColor" stroke="currentColor" stroke-width=".222"/><circle id="gpPt5" cx="0" cy="0" r="1" stroke="currentColor" stroke-width=".222"/><use id="gpPt6" fill="currentColor" stroke="none" xlink:href="#gpPt5"/><path id="gpPt7" stroke="currentColor" stroke-width=".222" d="M0,-1.33 L-1.33,0.67 L1.33,0.67 z"/><use id="gpPt8" fill="currentColor" stroke="none" xlink:href="#gpPt7"/><use id="gpPt9" stroke="currentColor" transform="rotate(180)" xlink:href="#gpPt7"/><use id="gpPt10" fill="currentColor" stroke="none" xlink:href="#gpPt9"/><use id="gpPt11" stroke="currentColor" transform="rotate(45)" xlink:href="#gpPt3"/><use id="gpPt12" fill="currentColor" stroke="none" xlink:href="#gpPt11"/><path id="gpPt13" stroke="currentColor" stroke-width=".222" d="M0,1.330 L1.265,0.411 L0.782,-1.067 L-0.782,-1.076 L-1.265,0.411 z"/><use id="gpPt14" fill="currentColor" stroke="none" xlink:href="#gpPt13"/><filter id="textbox" width="1" height="1" x="0" y="0" filterUnits="objectBoundingBox"><feFlood flood-color="#FFF" flood-opacity="1" result="bgnd"/><feComposite in="SourceGraphic" in2="bgnd" operator="atop"/></filter><filter id="greybox" width="1" height="1" x="0" y="0" filterUnits="objectBoundingBox"><feFlood flood-color="#d3d3d3" flood-opacity="1" result="grey"/><feComposite in="SourceGraphic" in2="grey" operator="atop"/></filter></defs><g fill="none" stroke="currentColor" stroke-linecap="butt" stroke-linejoin="miter" stroke-width=".5" color="gray"><path stroke="gray" stroke-dasharray="2 4" d="M80.92,684.00 L334.82,684.00" class="gridline"/></g><g fill="none" stroke="currentColor" stroke-linecap="butt" stroke-linejoin="miter" stroke-width="1" color="#000"><path stroke="#000" d="M80.92,684.00 L89.92,684.00 M334.82,684.00 L325.82,684.00"/><g fill="#000" stroke="none" font-family="Arial" font-size="12" text-anchor="end"><text transform="translate(72.53,687.90)"><tspan font-family="Arial">24</tspan></text></g></g><g fill="none" stroke="currentColor" stroke-linecap="butt" stroke-linejoin="miter" stroke-width=".5" color="gray"><path stroke="gray" stroke-dasharray="2 4" d="M80.92,643.20 L334.82,643.20" class="gridline"/></g><g fill="none" stroke="currentColor" stroke-linecap="butt" stroke-linejoin="miter" stroke-width="1" color="#000"><path stroke="#000" d="M80.92,643.20 L89.92,643.20 M334.82,643.20 L325.82,643.20"/><g fill="#000" stroke="none" font-family="Arial" font-size="12" text-anchor="end"><text transform="translate(72.53,647.10)"><tspan font-family="Arial">24.2</tspan></text></g></g><g fill="none" stroke="currentColor" stroke-linecap="butt" stroke-linejoin="miter" stroke-width=".5" color="gray"><path stroke="gray" stroke-dasharray="2 4" d="M80.92,602.40 L334.82,602.40" class="gridline"/></g><g fill="none" stroke="currentColor" stroke-linecap="butt" stroke-linejoin="miter" stroke-width="1" color="#000"><path stroke="#000" d="M80.92,602.40 L89.92,602.40 M334.82,602.40 L325.82,602.40"/><g fill="#000" stroke="none" font-family="Arial" font-size="12" text-anchor="end"><text transform="translate(72.53,606.30)"><tspan font-family="Arial">24.4</tspan></text></g></g><g fill="none" stroke="currentColor" stroke-linecap="butt" stroke-linejoin="miter" stroke-width=".5" color="gray"><path stroke="gray" stroke-dasharray="2 4" d="M80.92,561.60 L334.82,561.60" class="gridline"/></g><g fill="none" stroke="currentColor" stroke-linecap="butt" stroke-linejoin="miter" stroke-width="1" color="#000"><path stroke="#000" d="M80.92,561.60 L89.92,561.60 M334.82,561.60 L325.82,561.60"/><g fill="#000" stroke="none" font-family="Arial" font-size="12" text-anchor="end"><text transform="translate(72.53,565.50)"><tspan font-family="Arial">24.6</tspan></text></g></g><g fill="none" stroke="currentColor" stroke-linecap="butt" stroke-linejoin="miter" stroke-width=".5" color="gray"><path stroke="gray" stroke-dasharray="2 4" d="M80.92,520.80 L334.82,520.80" class="gridline"/></g><g fill="none" stroke="currentColor" stroke-linecap="butt" stroke-linejoin="miter" stroke-width="1" color="#000"><path stroke="#000" d="M80.92,520.80 L89.92,520.80 M334.82,520.80 L325.82,520.80"/><g fill="#000" stroke="none" font-family="Arial" font-size="12" text-anchor="end"><text transform="translate(72.53,524.70)"><tspan font-family="Arial">24.8</tspan></text></g></g><g fill="none" stroke="currentColor" stroke-linecap="butt" stroke-linejoin="miter" stroke-width=".5" color="gray"><path stroke="gray" stroke-dasharray="2 4" d="M80.92,480.00 L334.82,480.00" class="gridline"/></g><g fill="none" stroke="currentColor" stroke-linecap="butt" stroke-linejoin="miter" stroke-width="1" color="#000"><path stroke="#000" d="M80.92,480.00 L89.92,480.00 M334.82,480.00 L325.82,480.00"/><g fill="#000" stroke="none" font-family="Arial" font-size="12" text-anchor="end"><text transform="translate(72.53,483.90)"><tspan font-family="Arial">25</tspan></text></g></g><g fill="none" stroke="currentColor" stroke-linecap="butt" stroke-linejoin="miter" stroke-width=".5" color="gray"><path stroke="gray" stroke-dasharray="2 4" d="M80.92,439.20 L334.82,439.20" class="gridline"/></g><g fill="none" stroke="currentColor" stroke-linecap="butt" stroke-linejoin="miter" stroke-width="1" color="#000"><path stroke="#000" d="M80.92,439.20 L89.92,439.20 M334.82,439.20 L325.82,439.20"/><g fill="#000" stroke="none" font-family="Arial" font-size="12" text-anchor="end"><text transform="translate(72.53,443.10)"><tspan font-family="Arial">25.2</tspan></text></g></g><g fill="none" stroke="currentColor" stroke-linecap="butt" stroke-linejoin="miter" stroke-width=".5" color="gray"><path stroke="gray" stroke-dasharray="2 4" d="M80.92,398.40 L334.82,398.40" class="gridline"/></g><g fill="none" stroke="currentColor" stroke-linecap="butt" stroke-linejoin="miter" stroke-width="1" color="#000"><path stroke="#000" d="M80.92,398.40 L89.92,398.40 M334.82,398.40 L325.82,398.40"/><g fill="#000" stroke="none" font-family="Arial" font-size="12" text-anchor="end"><text transform="translate(72.53,402.30)"><tspan font-family="Arial">25.4</tspan></text></g></g><g fill="none" stroke="currentColor" stroke-linecap="butt" stroke-linejoin="miter" stroke-width=".5" color="gray"><path stroke="gray" stroke-dasharray="2 4" d="M80.92,357.61 L334.82,357.61" class="gridline"/></g><g fill="none" stroke="currentColor" stroke-linecap="butt" stroke-linejoin="miter" stroke-width="1" color="#000"><path stroke="#000" d="M80.92,357.61 L89.92,357.61 M334.82,357.61 L325.82,357.61"/><g fill="#000" stroke="none" font-family="Arial" font-size="12" text-anchor="end"><text transform="translate(72.53,361.51)"><tspan font-family="Arial">25.6</tspan></text></g></g><g fill="none" stroke="currentColor" stroke-linecap="butt" stroke-linejoin="miter" stroke-width=".5" color="gray"><path stroke="gray" stroke-dasharray="2 4" d="M80.92,316.81 L334.82,316.81" class="gridline"/></g><g fill="none" stroke="currentColor" stroke-linecap="butt" stroke-linejoin="miter" stroke-width="1" color="#000"><path stroke="#000" d="M80.92,316.81 L89.92,316.81 M334.82,316.81 L325.82,316.81"/><g fill="#000" stroke="none" font-family="Arial" font-size="12" text-anchor="end"><text transform="translate(72.53,320.71)"><tspan font-family="Arial">25.8</tspan></text></g></g><g fill="none" stroke="currentColor" stroke-linecap="butt" stroke-linejoin="miter" stroke-width=".5" color="gray"><path stroke="gray" stroke-dasharray="2 4" d="M80.92,276.01 L334.82,276.01" class="gridline"/></g><g fill="none" stroke="currentColor" stroke-linecap="butt" stroke-linejoin="miter" stroke-width="1" color="#000"><path stroke="#000" d="M80.92,276.01 L89.92,276.01 M334.82,276.01 L325.82,276.01"/><g fill="#000" stroke="none" font-family="Arial" font-size="12" text-anchor="end"><text transform="translate(72.53,279.91)"><tspan font-family="Arial">26</tspan></text></g></g><g fill="none" stroke="currentColor" stroke-linecap="butt" stroke-linejoin="miter" stroke-width=".5" color="gray"><path stroke="gray" stroke-dasharray="2 4" d="M80.92,235.21 L334.82,235.21" class="gridline"/></g><g fill="none" stroke="currentColor" stroke-linecap="butt" stroke-linejoin="miter" stroke-width="1" color="#000"><path stroke="#000" d="M80.92,235.21 L89.92,235.21 M334.82,235.21 L325.82,235.21"/><g fill="#000" stroke="none" font-family="Arial" font-size="12" text-anchor="end"><text transform="translate(72.53,239.11)"><tspan font-family="Arial">26.2</tspan></text></g></g><g fill="none" stroke="currentColor" stroke-linecap="butt" stroke-linejoin="miter" stroke-width=".5" color="gray"><path stroke="gray" stroke-dasharray="2 4" d="M80.92,194.41 L334.82,194.41" class="gridline"/></g><g fill="none" stroke="currentColor" stroke-linecap="butt" stroke-linejoin="miter" stroke-width="1" color="#000"><path stroke="#000" d="M80.92,194.41 L89.92,194.41 M334.82,194.41 L325.82,194.41"/><g fill="#000" stroke="none" font-family="Arial" font-size="12" text-anchor="end"><text transform="translate(72.53,198.31)"><tspan font-family="Arial">26.4</tspan></text></g></g><g fill="none" stroke="currentColor" stroke-linecap="butt" stroke-linejoin="miter" stroke-width=".5" color="gray"><path stroke="gray" stroke-dasharray="2 4" d="M80.92,153.61 L334.82,153.61" class="gridline"/></g><g fill="none" stroke="currentColor" stroke-linecap="butt" stroke-linejoin="miter" stroke-width="1" color="#000"><path stroke="#000" d="M80.92,153.61 L89.92,153.61 M334.82,153.61 L325.82,153.61"/><g fill="#000" stroke="none" font-family="Arial" font-size="12" text-anchor="end"><text transform="translate(72.53,157.51)"><tspan font-family="Arial">26.6</tspan></text></g></g><g fill="none" stroke="currentColor" stroke-linecap="butt" stroke-linejoin="miter" stroke-width=".5" color="gray"><path stroke="gray" stroke-dasharray="2 4" d="M80.92,112.81 L89.31,112.81" class="gridline"/></g><g fill="none" stroke="currentColor" stroke-linecap="butt" stroke-linejoin="miter" stroke-width="1" color="#000"><path stroke="#000" d="M80.92,112.81 L89.92,112.81 M334.82,112.81 L325.82,112.81"/><g fill="#000" stroke="none" font-family="Arial" font-size="12" text-anchor="end"><text transform="translate(72.53,116.71)"><tspan font-family="Arial">26.8</tspan></text></g></g><g fill="none" stroke="currentColor" stroke-linecap="butt" stroke-linejoin="miter" stroke-width=".5" color="gray"><path stroke="gray" stroke-dasharray="2 4" d="M80.92,72.01 L334.82,72.01" class="gridline"/></g><g fill="none" stroke="currentColor" stroke-linecap="butt" stroke-linejoin="miter" stroke-width="1" color="#000"><path stroke="#000" d="M80.92,72.01 L89.92,72.01 M334.82,72.01 L325.82,72.01"/><g fill="#000" stroke="none" font-family="Arial" font-size="12" text-anchor="end"><text transform="translate(72.53,75.91)"><tspan font-family="Arial">27</tspan></text></g></g><g fill="none" stroke="currentColor" stroke-linecap="butt" stroke-linejoin="miter" stroke-width="1" color="#000"><path stroke="#000" d="M207.87,684.00 L207.87,675.00 M207.87,72.01 L207.87,81.01"/><g fill="#000" stroke="none" font-family="Arial" font-size="12" text-anchor="middle"><text transform="translate(207.87,705.90)"><tspan font-family="Arial">Update 1x1x1 Float</tspan></text></g></g><g fill="none" stroke="currentColor" stroke-linecap="butt" stroke-linejoin="miter" stroke-width="1" color="#000"><path stroke="#000" d="M80.92,72.01 L80.92,684.00 L334.82,684.00 L334.82,72.01 L80.92,72.01 Z"/></g><g fill="none" stroke="currentColor" stroke-linecap="butt" stroke-linejoin="miter" stroke-width="1" color="#000"><g fill="#000" stroke="none" font-family="Arial" font-size="12" text-anchor="middle"><text transform="translate(19.18,378.01) rotate(270)"><tspan font-family="Arial">Time (ns)</tspan></text></g></g><g id="gnuplot_plot_1"><title>Maximum</title><g fill="none" stroke="currentColor" stroke-linecap="butt" stroke-linejoin="miter" stroke-width="1" color="#000"><g fill="#000" stroke="none" font-family="Arial" font-size="12" text-anchor="start"><text transform="translate(148.65,93.91)"><tspan font-family="Arial">Maximum</tspan></text></g></g><g fill="none" stroke="currentColor" stroke-linecap="butt" stroke-linejoin="miter" stroke-width="1" color="#000"><g stroke="none" shape-rendering="crispEdges"><polygon fill="#F7DC6F" points="97.7 94.51 140.26 94.51 140.26 85.51 97.7 85.51"/></g><path stroke="#000" d="M97.70,94.51 L140.26,94.51 L140.26,85.51 L97.70,85.51 L97.70,94.51 Z"/></g><g fill="none" stroke="currentColor" stroke-linecap="butt" stroke-linejoin="miter" stroke-width="1" color="#000"><g stroke="none" shape-rendering="crispEdges"><polygon fill="#F7DC6F" points="93.62 684 322.14 684 322.14 250.45 93.62 250.45"/></g><path stroke="#000" d="M93.62,684.00 L93.62,250.46 L322.13,250.46 L322.13,684.00 L93.62,684.00 Z"/></g></g><g id="gnuplot_plot_2"><title>Average</title><g fill="none" stroke="currentColor" stroke-linecap="butt" stroke-linejoin="miter" stroke-width="1" color="#000"><g fill="#000" stroke="none" font-family="Arial" font-size="12" text-anchor="start"><text transform="translate(148.65,111.91)"><tspan font-family="Arial">Average</tspan></text></g></g><g fill="none" stroke="currentColor" stroke-linecap="butt" stroke-linejoin="miter" stroke-width="1" color="#000"><g stroke="none" shape-rendering="crispEdges"><polygon fill="#F4D03F" points="97.7 112.51 140.26 112.51 140.26 103.51 97.7 103.51"/></g><path stroke="#000" d="M97.70,112.51 L140.26,112.51 L140.26,103.51 L97.70,103.51 L97.70,112.51 Z"/></g><g fill="none" stroke="currentColor" stroke-linecap="butt" stroke-linejoin="miter" stroke-width="1" color="#000"><g stroke="none" shape-rendering="crispEdges"><polygon fill="#F4D03F" points="93.62 684 322.14 684 322.14 424.45 93.62 424.45"/></g><path stroke="#000" d="M93.62,684.00 L93.62,424.46 L322.13,424.46 L322.13,684.00 L93.62,684.00 Z"/></g></g><g id="gnuplot_plot_3"><title>Minimum</title><g fill="none" stroke="currentColor" stroke-linecap="butt" stroke-linejoin="miter" stroke-width="1" color="#000"><g fill="#000" stroke="none" font-family="Arial" font-size="12" text-anchor="start"><text transform="translate(148.65,129.91)"><tspan font-family="Arial">Minimum</tspan></text></g></g><g fill="none" stroke="currentColor" stroke-linecap="butt" stroke-linejoin="miter" stroke-width="1" color="#000"><g stroke="none" shape-rendering="crispEdges"><polygon fill="#F1C40F" points="97.7 130.51 140.26 130.51 140.26 121.51 97.7 121.51"/></g><path stroke="#000" d="M97.70,130.51 L140.26,130.51 L140.26,121.51 L97.70,121.51 L97.70,130.51 Z"/></g><g fill="none" stroke="currentColor" stroke-linecap="butt" stroke-linejoin="miter" stroke-width="1" color="#000"><g stroke="none" shape-rendering="crispEdges"><polygon fill="#F1C40F" points="93.62 684 322.14 684 322.14 436.14 93.62 436.14"/></g><path stroke="#000" d="M93.62,684.00 L93.62,436.15 L322.13,436.15 L322.13,684.00 L93.62,684.00 Z"/></g></g><g id="gnuplot_plot_4"><title>gnuplot_plot_4</title><g fill="none" stroke="currentColor" stroke-linecap="butt" stroke-linejoin="miter" stroke-width="1" color="#000"><g fill="#000" stroke="none" font-family="Arial" font-size="12" text-anchor="end"><text transform="translate(191.09,248.96)" xml:space="preserve"><tspan font-family="Arial" xml:space="preserve">26.13</tspan></text></g></g></g><g id="gnuplot_plot_5"><title>gnuplot_plot_5</title><g fill="none" stroke="currentColor" stroke-linecap="butt" stroke-linejoin="miter" stroke-width="1" color="#000"><g fill="#000" stroke="none" font-family="Arial" font-size="12" text-anchor="end"><text transform="translate(191.09,422.96)" xml:space="preserve"><tspan font-family="Arial" xml:space="preserve">25.27</tspan></text></g></g></g><g id="gnuplot_plot_6"><title>gnuplot_plot_6</title><g fill="none" stroke="currentColor" stroke-linecap="butt" stroke-linejoin="miter" stroke-width="1" color="#000"><g fill="#000" stroke="none" font-family="Arial" font-size="12" text-anchor="end"><text transform="translate(191.09,434.65)" xml:space="preserve"><tspan font-family="Arial" xml:space="preserve">25.21</tspan></text></g></g></g><g id="gnuplot_plot_7"><title>Mean and Standard Deviation</title><g fill="none" stroke="currentColor" stroke-linecap="butt" stroke-linejoin="miter" stroke-width="1" color="#000"><g fill="#000" stroke="none" font-family="Arial" font-size="12" text-anchor="start"><text transform="translate(148.65,147.91)"><tspan font-family="Arial">Mean and Standard Deviation</tspan></text></g></g><g fill="none" stroke="currentColor" stroke-linecap="butt" stroke-linejoin="miter" stroke-width="1" color="#000"><path stroke="#000" d="M97.70,144.01 L140.26,144.01 M97.70,139.51 L97.70,148.51 M140.26,139.51 L140.26,148.51 M207.87,450.30 L207.87,406.28 M203.37,450.30 L212.37,450.30 M203.37,406.28 L212.37,406.28"/></g><g fill="none" stroke="currentColor" stroke-linecap="butt" stroke-linejoin="miter" stroke-width="1" color="#000"><use color="#000" transform="translate(207.87,428.29) scale(4.50)" xlink:href="#gpPt0"/><use color="#000" transform="translate(118.98,144.01) scale(4.50)" xlink:href="#gpPt0"/></g></g><g id="gnuplot_plot_8"><title>gnuplot_plot_8</title><g fill="none" stroke="currentColor" stroke-linecap="butt" stroke-linejoin="miter" stroke-width="1" color="#000"><g fill="#000" stroke="none" font-family="Arial" font-size="12" text-anchor="start"><text transform="translate(216.26,410.18)"><tspan font-family="Arial">25.36</tspan></text></g></g></g><g id="gnuplot_plot_9"><title>gnuplot_plot_9</title><g fill="none" stroke="currentColor" stroke-linecap="butt" stroke-linejoin="miter" stroke-width="1" color="#000"><g fill="#000" stroke="none" font-family="Arial" font-size="12" text-anchor="start"><text transform="translate(216.26,432.19)"><tspan font-family="Arial">25.25 (cv: 0.4 %)</tspan></text></g></g></g><g id="gnuplot_plot_10"><title>gnuplot_plot_10</title><g fill="none" stroke="currentColor" stroke-linecap="butt" stroke-linejoin="miter" stroke-width="1" color="#000"><g fill="#000" stroke="none" font-family="Arial" font-size="12" text-anchor="start"><text transform="translate(216.26,454.20)"><tspan font-family="Arial">25.15</tspan></text></g></g></g><g fill="none" stroke="currentColor" stroke-linecap="butt" stroke-linejoin="miter" stroke-width="1" color="#000"><path stroke="#000" d="M80.92,72.01 L80.92,684.00 L334.82,684.00 L334.82,72.01 L80.92,72.01 Z"/></g><g fill="none" stroke="currentColor" stroke-linecap="butt" stroke-linejoin="miter" stroke-width="1" color="#000"><g fill="#000" stroke="none" font-family="Arial" font-size="12" text-anchor="middle"><text transform="translate(207.87,30.91)"><tspan font-family="Arial" font-weight="bold">Update 1x1x1 Float Benchmark</tspan></text></g><g fill="#000" stroke="none" font-family="Arial" font-size="12" text-anchor="middle"><text transform="translate(207.87,48.91)"><tspan font-family="Arial" font-size="9.6">kalman&lt;float, float, float&gt;::update(0.f)</tspan></text></g></g></g></svg>